<?xml version="1.0" encoding="UTF-8" standalone="no"?>
<!-- Created with Inkscape (http://www.inkscape.org/) -->

<svg
   width="210mm"
   height="297mm"
   viewBox="0 0 210 297"
   version="1.1"
   id="svg5"
   sodipodi:docname="node_data_flow_scheme.svg"
   inkscape:version="1.2.2 (1:1.2.2+202212051550+b0a8486541)"
   inkscape:export-filename="node_data_flow_scheme.png"
   inkscape:export-xdpi="96"
   inkscape:export-ydpi="96"
   xmlns:inkscape="http://www.inkscape.org/namespaces/inkscape"
   xmlns:sodipodi="http://sodipodi.sourceforge.net/DTD/sodipodi-0.dtd"
   xmlns="http://www.w3.org/2000/svg"
   xmlns:svg="http://www.w3.org/2000/svg">
  <sodipodi:namedview
     id="namedview7"
     pagecolor="#ffffff"
     bordercolor="#666666"
     borderopacity="1.0"
     inkscape:showpageshadow="2"
     inkscape:pageopacity="0.0"
     inkscape:pagecheckerboard="0"
     inkscape:deskcolor="#d1d1d1"
     inkscape:document-units="mm"
     showgrid="false"
     showguides="true"
     inkscape:zoom="0.70954165"
     inkscape:cx="258.61766"
     inkscape:cy="515.12127"
     inkscape:window-width="1864"
     inkscape:window-height="1016"
     inkscape:window-x="56"
     inkscape:window-y="1107"
     inkscape:window-maximized="1"
     inkscape:current-layer="layer1" />
  <defs
     id="defs2">
    <marker
       style="overflow:visible"
       id="marker3972"
       refX="0"
       refY="0"
       orient="auto-start-reverse"
       inkscape:stockid="Arrow2"
       markerWidth="7.6999998"
       markerHeight="5.5999999"
       viewBox="0 0 7.7 5.6"
       inkscape:isstock="true"
       inkscape:collect="always"
       preserveAspectRatio="xMidYMid">
      <path
         transform="scale(0.7)"
         d="M -2,-4 9,0 -2,4 c 2,-2.33 2,-5.66 0,-8 z"
         style="fill:context-stroke;fill-rule:evenodd;stroke:none"
         id="path3970" />
    </marker>
    <marker
       style="overflow:visible"
       id="Arrow2"
       refX="0"
       refY="0"
       orient="auto-start-reverse"
       inkscape:stockid="Arrow2"
       markerWidth="7.6999998"
       markerHeight="5.5999999"
       viewBox="0 0 7.7 5.6"
       inkscape:isstock="true"
       inkscape:collect="always"
       preserveAspectRatio="xMidYMid">
      <path
         transform="scale(0.7)"
         d="M -2,-4 9,0 -2,4 c 2,-2.33 2,-5.66 0,-8 z"
         style="fill:context-stroke;fill-rule:evenodd;stroke:none"
         id="arrow2L" />
    </marker>
    <marker
       style="overflow:visible"
       id="Arrow1L"
       refX="0"
       refY="0"
       orient="auto-start-reverse"
       inkscape:stockid="Arrow1L"
       markerWidth="8.75"
       markerHeight="5"
       viewBox="0 0 8.75 5"
       inkscape:isstock="true"
       inkscape:collect="always"
       preserveAspectRatio="xMidYMid">
      <path
         style="fill:context-stroke;fill-rule:evenodd;stroke:none"
         d="M 0,0 5,-5 -12.5,0 5,5 Z"
         id="arrow1L"
         transform="scale(-0.5)" />
    </marker>
    <marker
       style="overflow:visible"
       id="Arrow1L-2"
       refX="0"
       refY="0"
       orient="auto-start-reverse"
       inkscape:stockid="Arrow1L"
       markerWidth="8.75"
       markerHeight="5"
       viewBox="0 0 8.75 5"
       inkscape:isstock="true"
       inkscape:collect="always"
       preserveAspectRatio="xMidYMid">
      <path
         style="fill:context-stroke;fill-rule:evenodd;stroke:none"
         d="M 0,0 5,-5 -12.5,0 5,5 Z"
         id="arrow1L-9"
         transform="scale(-0.5)" />
    </marker>
    <marker
       style="overflow:visible"
       id="Arrow1L-9"
       refX="0"
       refY="0"
       orient="auto-start-reverse"
       inkscape:stockid="Arrow1L"
       markerWidth="8.75"
       markerHeight="5"
       viewBox="0 0 8.75 5"
       inkscape:isstock="true"
       inkscape:collect="always"
       preserveAspectRatio="xMidYMid">
      <path
         style="fill:context-stroke;fill-rule:evenodd;stroke:none"
         d="M 0,0 5,-5 -12.5,0 5,5 Z"
         id="arrow1L-3"
         transform="scale(-0.5)" />
    </marker>
    <marker
       style="overflow:visible"
       id="Arrow1L-6"
       refX="0"
       refY="0"
       orient="auto-start-reverse"
       inkscape:stockid="Arrow1L"
       markerWidth="8.75"
       markerHeight="5"
       viewBox="0 0 8.75 5"
       inkscape:isstock="true"
       inkscape:collect="always"
       preserveAspectRatio="xMidYMid">
      <path
         style="fill:context-stroke;fill-rule:evenodd;stroke:none"
         d="M 0,0 5,-5 -12.5,0 5,5 Z"
         id="arrow1L-1"
         transform="scale(-0.5)" />
    </marker>
  </defs>
  <g
     inkscape:label="Layer 1"
     inkscape:groupmode="layer"
     id="layer1">
    <rect
       style="fill:#62a0ea;stroke:#000000;stroke-width:0.717;stroke-dasharray:none;paint-order:fill markers stroke"
       id="rect3083"
       width="28.627214"
       height="15.35112"
       x="74.51915"
       y="55.957268"
       ry="0" />
    <circle
       style="fill:#8ff0a4;stroke:#000000;stroke-width:1.12851;paint-order:fill markers stroke"
       id="path312"
       cx="49.189156"
       cy="63.051743"
       r="26.641714" />
    <path
       id="text514"
       style="font-style:normal;font-weight:normal;font-size:5.30378px;line-height:1.25;font-family:sans-serif;letter-spacing:0px;word-spacing:0px;fill:#000000;fill-opacity:1;stroke:none;stroke-width:0.14318"
       d="m 23.826958,59.271834 v 0.651765 h 0.514493 v -0.651765 z m 27.355149,0 v 4.351423 h 0.514492 v -4.351423 z m 11.381889,0 c -0.333713,0 -0.581643,0.08203 -0.743838,0.246086 -0.160331,0.162196 -0.240506,0.413829 -0.240506,0.754999 v 0.218184 H 61.08748 v 0.400099 h 0.492172 v 2.732055 h 0.517283 v -2.732055 h 1.412343 v 2.732055 h 0.517283 v -3.132154 h -1.929626 v -0.276777 c 0,-0.193889 0.03518,-0.327758 0.106023,-0.402331 0.07271,-0.07457 0.201582,-0.112161 0.386149,-0.112161 h 0.492171 v -0.428 z m 2.538981,0 v 4.351423 h 0.514492 v -4.351423 z m -1.593699,0.0056 v 0.651765 h 0.517283 v -0.651765 z m 3.176796,0.324766 v 0.888922 h -0.377779 v 0.400099 h 0.377779 v 1.70028 c 0,0.391506 0.07554,0.661655 0.226555,0.8108 0.15101,0.147281 0.424861,0.220975 0.82196,0.220975 h 0.528443 v -0.43079 h -0.528443 c -0.214396,0 -0.357156,-0.0361 -0.427999,-0.108813 -0.06898,-0.07271 -0.103234,-0.236761 -0.103234,-0.492172 v -1.70028 h 1.059676 V 60.491122 H 67.203356 V 59.6022 Z m -39.763233,0.81359 c -0.225583,0 -0.420185,0.04592 -0.584245,0.137272 -0.16406,0.09135 -0.304967,0.232627 -0.422419,0.424652 v -0.486592 h -0.517283 v 3.132154 h 0.517283 v -1.770032 c 0,-0.303884 0.0774,-0.544408 0.232136,-0.721517 0.154737,-0.178974 0.363226,-0.268407 0.626095,-0.268407 0.221853,0 0.385905,0.07277 0.492171,0.218185 0.106267,0.143553 0.159594,0.365929 0.159594,0.667947 v 1.873824 h 0.517282 v -1.770032 c 0,-0.305748 0.0774,-0.547198 0.232135,-0.724307 0.154739,-0.17711 0.365637,-0.265617 0.632235,-0.265617 0.218125,0 0.380325,0.07277 0.486592,0.218185 0.106266,0.145416 0.159035,0.367792 0.159035,0.667947 v 1.873824 h 0.517282 v -1.890564 c 0,-0.421336 -0.08851,-0.745736 -0.265617,-0.973183 -0.177109,-0.229311 -0.428742,-0.343739 -0.754998,-0.343739 -0.24236,0 -0.452701,0.05518 -0.631676,0.165173 -0.178974,0.109994 -0.332842,0.280528 -0.46148,0.511702 -0.07644,-0.219988 -0.195127,-0.387744 -0.355458,-0.503332 -0.158466,-0.115587 -0.351218,-0.173543 -0.578664,-0.173543 z m 5.173383,0 c -0.167788,0 -0.340172,0.01852 -0.517283,0.0558 -0.177109,0.03542 -0.359677,0.08967 -0.547974,0.162383 v 0.475431 c 0.156604,-0.08576 0.319729,-0.150195 0.489383,-0.193074 0.169652,-0.04288 0.343888,-0.06417 0.522862,-0.06417 0.281512,0 0.499817,0.06536 0.654556,0.195864 0.156602,0.128638 0.234924,0.311206 0.234924,0.547974 v 0.05022 h -0.721516 c -0.467944,0 -0.820676,0.08943 -1.057444,0.268405 -0.234904,0.178975 -0.35211,0.444494 -0.35211,0.79685 0,0.302019 0.09406,0.543468 0.282357,0.724308 0.190161,0.178974 0.445496,0.268405 0.76616,0.268405 0.253546,0 0.468148,-0.04444 0.643394,-0.133923 0.175245,-0.09135 0.321707,-0.23226 0.439159,-0.42242 v 0.475431 h 0.514493 v -1.786773 c 0,-0.477265 -0.112208,-0.8337 -0.335927,-1.068604 -0.223718,-0.234903 -0.562006,-0.352109 -1.015034,-0.352109 z m 3.467522,0 c -0.384049,0 -0.693079,0.146462 -0.927983,0.43916 -0.234904,0.292697 -0.352667,0.681535 -0.352667,1.166257 0,0.482858 0.117763,0.870211 0.352667,1.162909 0.234904,0.292698 0.543934,0.43916 0.927983,0.43916 0.231176,0 0.43004,-0.04536 0.595963,-0.136714 0.165925,-0.09135 0.301645,-0.229482 0.407911,-0.41405 v 0.254457 c 0,0.356084 -0.08388,0.621603 -0.251666,0.796849 -0.167788,0.177111 -0.420347,0.265617 -0.757788,0.265617 -0.152874,0 -0.302481,-0.01944 -0.449762,-0.05859 -0.147281,-0.03915 -0.296521,-0.09988 -0.447531,-0.181915 v 0.500543 c 0.15101,0.05593 0.30673,0.09722 0.467061,0.123322 0.160331,0.02796 0.330865,0.04185 0.511703,0.04185 0.48845,0 0.850809,-0.130724 1.087577,-0.391728 0.236768,-0.25914 0.355457,-0.654827 0.355457,-1.18802 V 60.491123 H 36.56762 v 0.475432 c -0.106266,-0.184588 -0.241986,-0.322161 -0.407911,-0.413512 -0.165923,-0.09135 -0.364787,-0.137272 -0.595963,-0.137272 z m 3.889942,0 c -0.469807,0 -0.843274,0.151092 -1.121057,0.45311 -0.275919,0.300156 -0.414049,0.706582 -0.414049,1.219269 0,0.495908 0.145536,0.889375 0.436369,1.180207 0.292698,0.290834 0.688942,0.435812 1.188578,0.435812 0.199483,0 0.395936,-0.02037 0.589825,-0.06138 0.193889,-0.04102 0.382937,-0.100264 0.567504,-0.178565 V 62.97763 c -0.182703,0.09695 -0.367122,0.169156 -0.553554,0.217627 -0.184566,0.04847 -0.375466,0.0731 -0.573084,0.0731 -0.341169,0 -0.607615,-0.09221 -0.799639,-0.276776 -0.19016,-0.186432 -0.296814,-0.457138 -0.319186,-0.811358 h 2.365996 v -0.251666 c 0,-0.466079 -0.123319,-0.833991 -0.369408,-1.104317 -0.244226,-0.27219 -0.576959,-0.408469 -0.998295,-0.408469 z m 6.426692,0 c -0.488451,0 -0.873585,0.146462 -1.155097,0.43916 -0.279648,0.292697 -0.41963,0.694496 -0.41963,1.205319 0,0.503365 0.139057,0.903311 0.41684,1.199738 0.277783,0.296426 0.652175,0.444181 1.123847,0.444181 0.173382,0 0.336508,-0.01666 0.489383,-0.05022 0.154737,-0.03356 0.303977,-0.08355 0.44753,-0.150666 v -0.475431 c -0.145418,0.08017 -0.291322,0.140341 -0.438602,0.181356 -0.145417,0.03915 -0.292805,0.05915 -0.441951,0.05915 -0.333712,0 -0.592751,-0.105728 -0.777318,-0.316395 -0.184568,-0.212532 -0.277335,-0.509528 -0.277335,-0.891712 0,-0.382186 0.09277,-0.678813 0.277335,-0.889481 0.184567,-0.212532 0.443606,-0.318628 0.777318,-0.318628 0.149146,0 0.296534,0.02037 0.441951,0.06138 0.14728,0.03915 0.293184,0.09896 0.438602,0.179123 v -0.481011 c -0.141689,-0.06525 -0.287594,-0.11395 -0.438602,-0.145643 -0.15101,-0.03356 -0.305805,-0.05022 -0.464271,-0.05022 z m 3.011622,0 c -0.4493,0 -0.801475,0.145537 -1.056886,0.43637 -0.253547,0.290833 -0.380568,0.693558 -0.380568,1.208109 0,0.512686 0.127021,0.915411 0.380568,1.208107 0.255411,0.290834 0.607586,0.435812 1.056886,0.435812 0.447435,0 0.798684,-0.144978 1.054096,-0.435812 0.255411,-0.292696 0.383358,-0.695421 0.383358,-1.208107 0,-0.514551 -0.127947,-0.917276 -0.383358,-1.208109 -0.255412,-0.290833 -0.606661,-0.43637 -1.054096,-0.43637 z m 5.09526,0 c -0.4493,0 -0.802032,0.145537 -1.057443,0.43637 -0.253547,0.290833 -0.380011,0.693558 -0.380011,1.208109 0,0.512686 0.126464,0.915411 0.380011,1.208107 0.255411,0.290834 0.608143,0.435812 1.057443,0.435812 0.447436,0 0.798685,-0.144978 1.054096,-0.435812 0.255411,-0.292696 0.383358,-0.695421 0.383358,-1.208107 0,-0.514551 -0.127947,-0.917276 -0.383358,-1.208109 -0.255411,-0.290833 -0.60666,-0.43637 -1.054096,-0.43637 z m 3.842511,0 c -0.247954,0 -0.458853,0.04685 -0.632235,0.140062 -0.17338,0.09135 -0.314288,0.231702 -0.422418,0.421862 v -0.486592 h -0.517283 v 3.132154 h 0.517283 v -1.650059 c 0,-0.35422 0.0774,-0.625294 0.232134,-0.813589 0.156604,-0.190161 0.380463,-0.285148 0.671296,-0.285148 0.08203,0 0.15665,0.0083 0.223765,0.02511 0.06898,0.01492 0.13249,0.03898 0.190284,0.07254 l -0.0028,-0.528443 c -0.0522,-0.0093 -0.09997,-0.0158 -0.142852,-0.01953 -0.04288,-0.0056 -0.08176,-0.0084 -0.117184,-0.0084 z m 12.421476,0 c -0.469807,0 -0.843275,0.151092 -1.121058,0.45311 -0.275918,0.300156 -0.414049,0.706582 -0.414049,1.219269 0,0.495908 0.145537,0.889375 0.43637,1.180207 0.292698,0.290834 0.688941,0.435812 1.188578,0.435812 0.199481,0 0.395936,-0.02037 0.589825,-0.06138 0.193889,-0.04102 0.382937,-0.100264 0.567504,-0.178565 V 62.97763 c -0.182703,0.09695 -0.367122,0.169156 -0.553554,0.217627 -0.184567,0.04847 -0.375467,0.0731 -0.573084,0.0731 -0.34117,0 -0.607615,-0.09221 -0.799639,-0.276776 -0.190161,-0.186432 -0.296815,-0.457138 -0.319186,-0.811358 h 2.365994 v -0.251666 c 0,-0.466079 -0.123317,-0.833991 -0.369407,-1.104317 -0.244226,-0.27219 -0.576959,-0.408469 -0.998294,-0.408469 z m 3.764388,0 c -0.247954,0 -0.458852,0.04685 -0.632234,0.140062 -0.173381,0.09135 -0.314289,0.231702 -0.42242,0.421862 v -0.486592 h -0.517282 v 3.132154 h 0.517282 v -1.650059 c 0,-0.35422 0.0774,-0.625294 0.232135,-0.813589 0.156604,-0.190161 0.380464,-0.285148 0.671296,-0.285148 0.08203,0 0.15665,0.0083 0.223765,0.02511 0.06898,0.01492 0.132491,0.03898 0.190284,0.07254 l -0.0028,-0.528443 c -0.0522,-0.0093 -0.09997,-0.0158 -0.142852,-0.01953 -0.04288,-0.0056 -0.08176,-0.0084 -0.117184,-0.0084 z m -50.188679,0.07533 v 3.132154 h 0.514493 V 60.49112 Z m 11.862901,0.355457 c 0.277783,0 0.49331,0.102394 0.646184,0.307468 0.154738,0.205075 0.231577,0.494297 0.231577,0.86716 0,0.370998 -0.07684,0.658736 -0.231577,0.863811 -0.152874,0.205075 -0.368401,0.307468 -0.646184,0.307468 -0.27592,0 -0.491447,-0.102393 -0.646185,-0.307468 -0.152874,-0.205075 -0.229345,-0.492813 -0.229345,-0.863811 0,-0.372863 0.07647,-0.662085 0.229345,-0.86716 0.154738,-0.205074 0.370265,-0.307468 0.646185,-0.307468 z m 3.76941,0.0056 c 0.253546,0 0.457039,0.08388 0.609913,0.251666 0.154739,0.167789 0.233987,0.392574 0.237716,0.674085 l -1.834762,0.0028 c 0.0261,-0.294563 0.12479,-0.523051 0.296307,-0.685247 0.173381,-0.162194 0.403721,-0.243295 0.690826,-0.243295 z m 9.432733,0 c 0.274054,0 0.491434,0.108874 0.651765,0.326998 0.160331,0.216261 0.240505,0.510111 0.240505,0.881111 0,0.372862 -0.08017,0.667081 -0.240505,0.883342 -0.160331,0.21626 -0.377711,0.324765 -0.651765,0.324765 -0.277783,0 -0.497014,-0.107579 -0.657345,-0.321976 -0.158467,-0.21626 -0.237716,-0.511404 -0.237716,-0.886131 0,-0.374728 0.08017,-0.669505 0.240505,-0.883901 0.160331,-0.216261 0.378637,-0.324208 0.654556,-0.324208 z m 5.09526,0 c 0.274055,0 0.490876,0.108874 0.651207,0.326998 0.160331,0.216261 0.240505,0.510111 0.240505,0.881111 0,0.372862 -0.08017,0.667081 -0.240505,0.883342 -0.160331,0.21626 -0.377152,0.324765 -0.651207,0.324765 -0.277783,0 -0.497013,-0.107579 -0.657344,-0.321976 -0.158468,-0.21626 -0.237716,-0.511404 -0.237716,-0.886131 0,-0.374728 0.08017,-0.669505 0.240505,-0.883901 0.160331,-0.216261 0.378637,-0.324208 0.654555,-0.324208 z m 16.269568,0 c 0.253546,0 0.457039,0.08388 0.609913,0.251666 0.154738,0.167789 0.233987,0.392574 0.237716,0.674085 l -1.834764,0.0028 c 0.0261,-0.294563 0.125349,-0.523051 0.296866,-0.685247 0.173382,-0.162194 0.403163,-0.243295 0.690269,-0.243295 z m -37.83584,1.196948 h 0.511702 v 0.114394 c 0,0.335576 -0.08665,0.604798 -0.260036,0.80801 -0.171517,0.201346 -0.400006,0.302445 -0.685245,0.302445 -0.20694,0 -0.370992,-0.05333 -0.492173,-0.159594 -0.119316,-0.108129 -0.179123,-0.253666 -0.179123,-0.436369 0,-0.22931 0.08017,-0.391512 0.240505,-0.486592 0.160332,-0.09508 0.448628,-0.142294 0.86437,-0.142294 z m 8.649276,2.525031 v 0.400098 h 2.975351 V 64.57412 Z m 16.965973,0 v 0.400098 h 2.975909 V 64.57412 Z m -6.664964,1.857083 v 1.6947 c -0.108131,-0.186432 -0.245335,-0.324562 -0.411259,-0.414049 -0.164061,-0.09135 -0.361998,-0.137272 -0.593173,-0.137272 -0.378456,0 -0.686562,0.15109 -0.925194,0.453109 -0.236767,0.30202 -0.355457,0.699189 -0.355457,1.191369 0,0.492179 0.11869,0.889349 0.355457,1.191368 0.238632,0.302019 0.546738,0.453111 0.925194,0.453111 0.231175,0 0.429112,-0.045 0.593173,-0.134484 0.165924,-0.09135 0.303128,-0.229849 0.411259,-0.416281 v 0.469294 h 0.514493 v -4.350865 z m -7.685021,1.143379 c -0.218126,0 -0.410876,0.04685 -0.578665,0.140062 -0.165924,0.09321 -0.310535,0.234124 -0.43358,0.422419 v -0.486591 h -0.517282 v 3.131596 h 0.517282 v -1.770032 c 0,-0.305749 0.08017,-0.547198 0.240505,-0.724309 0.160333,-0.177109 0.379563,-0.265615 0.657346,-0.265615 0.231176,0 0.404485,0.07369 0.520072,0.220974 0.115589,0.147281 0.172986,0.369289 0.172986,0.665716 v 1.873266 h 0.515051 v -1.890007 c 0,-0.432521 -0.09277,-0.7597 -0.277335,-0.981553 -0.184568,-0.223718 -0.456567,-0.335926 -0.81638,-0.335926 z m 3.333598,0 c -0.4493,0 -0.802033,0.145536 -1.057444,0.436369 -0.253546,0.290834 -0.38001,0.693557 -0.38001,1.208109 0,0.512687 0.126464,0.915411 0.38001,1.208108 0.255411,0.290833 0.608144,0.436371 1.057444,0.436371 0.447436,0 0.798684,-0.145538 1.054095,-0.436371 0.255411,-0.292697 0.383359,-0.695421 0.383359,-1.208108 0,-0.514552 -0.127948,-0.917275 -0.383359,-1.208109 -0.255411,-0.290833 -0.606659,-0.436369 -1.054095,-0.436369 z m 7.236933,0 c -0.469808,0 -0.843275,0.15109 -1.121058,0.453109 -0.275919,0.300155 -0.41405,0.706583 -0.41405,1.219269 0,0.495908 0.145538,0.889375 0.436371,1.180208 0.292697,0.290833 0.688941,0.436371 1.188577,0.436371 0.199483,0 0.395936,-0.02037 0.589825,-0.06138 0.193889,-0.04102 0.382937,-0.100823 0.567504,-0.179125 v -0.486591 c -0.182703,0.09694 -0.367122,0.169713 -0.553553,0.218185 -0.184567,0.04847 -0.375467,0.07254 -0.573085,0.07254 -0.341169,0 -0.607615,-0.09221 -0.799639,-0.276776 -0.19016,-0.186432 -0.296814,-0.456581 -0.319186,-0.810801 h 2.365995 v -0.251665 c 0,-0.46608 -0.123318,-0.83455 -0.369408,-1.104876 -0.244225,-0.27219 -0.576958,-0.408468 -0.998293,-0.408468 z m -3.76383,0.430789 c 0.27219,0 0.486792,0.107948 0.643394,0.324208 0.156603,0.214396 0.234926,0.511025 0.234926,0.889481 0,0.378455 -0.07832,0.67601 -0.234926,0.89227 -0.156602,0.214397 -0.371204,0.321419 -0.643394,0.321419 -0.272191,0 -0.486792,-0.107022 -0.643394,-0.321419 -0.154739,-0.21626 -0.232136,-0.513815 -0.232136,-0.89227 0,-0.378456 0.0774,-0.675085 0.232136,-0.889481 0.156602,-0.21626 0.371203,-0.324208 0.643394,-0.324208 z m -3.473103,0.0056 c 0.274055,0 0.490876,0.108874 0.651207,0.326998 0.160331,0.216261 0.240505,0.510112 0.240505,0.881111 0,0.372863 -0.08017,0.667639 -0.240505,0.8839 -0.160331,0.216261 -0.377152,0.324208 -0.651207,0.324208 -0.277783,0 -0.497014,-0.107022 -0.657345,-0.321418 -0.158466,-0.216261 -0.237715,-0.511963 -0.237715,-0.88669 0,-0.374728 0.08017,-0.669504 0.240505,-0.883901 0.160331,-0.21626 0.378636,-0.324208 0.654555,-0.324208 z m 7.242513,0 c 0.253547,0 0.457039,0.08388 0.609913,0.251666 0.154739,0.167788 0.233988,0.392575 0.237716,0.674085 l -1.834762,0.0028 c 0.0261,-0.294562 0.125348,-0.523051 0.296865,-0.685246 0.173382,-0.162196 0.403163,-0.243296 0.690268,-0.243296 z" />
    <circle
       style="fill:#8ff0a4;stroke:#000000;stroke-width:1.12851;paint-order:fill markers stroke"
       id="path312-7"
       cx="123.13805"
       cy="145.24205"
       r="26.641714" />
    <circle
       style="fill:#8ff0a4;stroke:#000000;stroke-width:1.12851;paint-order:fill markers stroke"
       id="path312-3"
       cx="49.94558"
       cy="231.33754"
       r="26.641714" />
    <text
       xml:space="preserve"
       style="font-style:normal;font-weight:normal;font-size:6.19372px;line-height:1.25;font-family:sans-serif;letter-spacing:0px;word-spacing:0px;fill:#000000;fill-opacity:1;stroke:none;stroke-width:0.154843"
       x="122.98544"
       y="144.02362"
       id="text846"><tspan
         sodipodi:role="line"
         id="tspan844"
         style="text-align:center;text-anchor:middle;stroke-width:0.154843"
         x="122.98544"
         y="144.02362">operator_image</tspan><tspan
         sodipodi:role="line"
         style="text-align:center;text-anchor:middle;stroke-width:0.154843"
         x="122.98544"
         y="151.76578"
         id="tspan848">node</tspan></text>
    <text
       xml:space="preserve"
       style="font-style:normal;font-weight:normal;font-size:7.13898px;line-height:1.25;font-family:sans-serif;letter-spacing:0px;word-spacing:0px;fill:#000000;fill-opacity:1;stroke:none;stroke-width:0.178475"
       x="49.926407"
       y="228.72067"
       id="text852"><tspan
         sodipodi:role="line"
         id="tspan850"
         style="text-align:center;text-anchor:middle;stroke-width:0.178475"
         x="49.926407"
         y="228.72067">sink_motors</tspan><tspan
         sodipodi:role="line"
         style="text-align:center;text-anchor:middle;stroke-width:0.178475"
         x="49.926407"
         y="237.64439"
         id="tspan854">node</tspan></text>
    <path
       style="fill:none;stroke:#000000;stroke-width:0.664068;stroke-linecap:butt;stroke-linejoin:miter;stroke-dasharray:none;stroke-opacity:1;marker-start:url(#Arrow1L)"
       d="M 75.1083,46.004137 95.967044,25.689713"
       id="path910" />
    <path
       style="fill:none;stroke:#000000;stroke-width:0.664068;stroke-linecap:butt;stroke-linejoin:miter;stroke-dasharray:none;stroke-opacity:1;marker-start:url(#Arrow1L-6)"
       d="M 89.277904,270.84853 68.419124,250.5341"
       id="path910-8" />
    <path
       style="fill:none;stroke:#000000;stroke-width:0.749835;stroke-linecap:butt;stroke-linejoin:miter;stroke-dasharray:none;stroke-opacity:1;marker-start:url(#Arrow1L-9)"
       d="m 67.943671,206.21352 39.976019,-38.9328"
       id="path910-6" />
    <path
       style="fill:none;stroke:#000000;stroke-width:0.617996;stroke-linecap:butt;stroke-linejoin:miter;stroke-dasharray:none;stroke-opacity:1;marker-start:url(#Arrow1L-2)"
       d="M 102.29865,122.7752 65.658568,83.964083"
       id="path910-1"
       sodipodi:nodetypes="cc" />
    <rect
       style="fill:#f9f06b;stroke:#000000;stroke-width:0.765;stroke-dasharray:none;paint-order:fill markers stroke"
       id="rect1785"
       width="44.000191"
       height="10.50525"
       x="94.564934"
       y="16.826902"
       ry="5.252625" />
    <text
       xml:space="preserve"
       style="font-style:normal;font-weight:normal;font-size:4.05613px;line-height:1.25;font-family:sans-serif;letter-spacing:0px;word-spacing:0px;fill:#000000;fill-opacity:1;stroke:none;stroke-width:0.101403"
       x="97.13105"
       y="23.33374"
       id="text1789"><tspan
         sodipodi:role="line"
         id="tspan1787"
         style="stroke-width:0.101403"
         x="97.13105"
         y="23.33374">/camera/image_raw</tspan></text>
    <rect
       style="fill:#e01b24;stroke:#000000;stroke-width:0.836798;stroke-dasharray:none;paint-order:fill markers stroke"
       id="rect1785-0"
       width="53.009178"
       height="10.433453"
       x="135.99216"
       y="82.889519"
       ry="5.2167263" />
    <text
       xml:space="preserve"
       style="font-style:normal;font-weight:normal;font-size:4.05613px;line-height:1.25;font-family:sans-serif;letter-spacing:0px;word-spacing:0px;fill:#000000;fill-opacity:1;stroke:none;stroke-width:0.101403"
       x="138.5224"
       y="89.360458"
       id="text1789-2"><tspan
         sodipodi:role="line"
         id="tspan1787-3"
         style="stroke-width:0.101403"
         x="138.5224"
         y="89.360458">/debug/image/pixel_pos</tspan></text>
    <rect
       style="fill:#f9f06b;stroke:#000000;stroke-width:0.588409;stroke-dasharray:none;paint-order:fill markers stroke"
       id="rect1785-7"
       width="24.713776"
       height="11.065138"
       x="89.168877"
       y="272.60388"
       ry="5.5325689" />
    <text
       xml:space="preserve"
       style="font-style:normal;font-weight:normal;font-size:4.05613px;line-height:1.25;font-family:sans-serif;letter-spacing:0px;word-spacing:0px;fill:#000000;fill-opacity:1;stroke:none;stroke-width:0.101403"
       x="92.352531"
       y="279.19901"
       id="text1789-9"><tspan
         sodipodi:role="line"
         id="tspan1787-2"
         style="stroke-width:0.101403"
         x="92.352531"
         y="279.19901">/cmd_vel</tspan></text>
    <rect
       style="fill:#f9f06b;stroke:#000000;stroke-width:0.8885;stroke-dasharray:none;paint-order:fill markers stroke"
       id="rect1785-2"
       width="60.05965"
       height="10.381749"
       x="53.168274"
       y="97.274734"
       ry="5.1908746" />
    <text
       xml:space="preserve"
       style="font-style:normal;font-weight:normal;font-size:4.05613px;line-height:1.25;font-family:sans-serif;letter-spacing:0px;word-spacing:0px;fill:#000000;fill-opacity:1;stroke:none;stroke-width:0.101403"
       x="55.672661"
       y="103.71983"
       id="text1789-7"><tspan
         sodipodi:role="line"
         id="tspan1787-0"
         style="stroke-width:0.101403"
         x="55.672661"
         y="103.71983">/sources/image_filter/image</tspan></text>
    <rect
       style="fill:#f9f06b;stroke:#000000;stroke-width:0.710463;stroke-dasharray:none;paint-order:fill markers stroke"
       id="rect1785-2-0"
       width="39.294434"
       height="10.145916"
       x="67.488258"
       y="181.35812"
       ry="5.072958" />
    <text
       xml:space="preserve"
       style="font-style:normal;font-weight:normal;font-size:4.05613px;line-height:1.25;font-family:sans-serif;letter-spacing:0px;word-spacing:0px;fill:#000000;fill-opacity:1;stroke:none;stroke-width:0.101403"
       x="70.081657"
       y="187.6853"
       id="text1789-7-6"><tspan
         sodipodi:role="line"
         id="tspan1787-0-2"
         style="stroke-width:0.101403"
         x="70.081657"
         y="187.6853">/centroid/rel_pos</tspan></text>
    <text
       xml:space="preserve"
       style="font-style:normal;font-weight:normal;font-size:4.84459px;line-height:1.25;font-family:sans-serif;letter-spacing:0px;word-spacing:0px;fill:#000000;fill-opacity:1;stroke:none;stroke-width:0.121115"
       x="88.776062"
       y="62.657936"
       id="text3139"><tspan
         sodipodi:role="line"
         id="tspan3137"
         style="text-align:center;text-anchor:middle;stroke-width:0.121115"
         x="88.776062"
         y="62.657936">display</tspan><tspan
         sodipodi:role="line"
         style="text-align:center;text-anchor:middle;stroke-width:0.121115"
         x="88.776062"
         y="68.713676"
         id="tspan3141">GUI</tspan></text>
    <path
       style="fill:#000000;stroke:#e01b24;stroke-width:0.557132;stroke-linecap:butt;stroke-linejoin:miter;stroke-dasharray:none;stroke-opacity:1;marker-end:url(#Arrow2)"
       d="m 130.75643,27.405407 0.16282,88.582913"
       id="path3868"
       sodipodi:nodetypes="cc" />
    <path
       style="fill:#000000;stroke:#e01b24;stroke-width:0.565;stroke-linecap:butt;stroke-linejoin:miter;stroke-dasharray:none;stroke-opacity:1;marker-end:url(#marker3972)"
       d="m 136.24099,121.89168 8.20712,-25.908116"
       id="path3968"
       sodipodi:nodetypes="cc" />
  </g>
</svg>
